<svg xmlns="http://www.w3.org/2000/svg" xmlns:xlink="http://www.w3.org/1999/xlink" width="1040" height="494.2"><rect width="1040" height="494.2" rx="5" ry="5" class="a"/><svg y="0%" x="0%"><circle cx="20" cy="20" r="6" fill="#ff5f58"/><circle cx="40" cy="20" r="6" fill="#ffbd2e"/><circle cx="60" cy="20" r="6" fill="#18c132"/></svg><svg height="434.2" viewBox="0 0 100 43.42" width="1000" x="15" xmlns="http://www.w3.org/2000/svg" xmlns:xlink="http://www.w3.org/1999/xlink" y="50"><style>@keyframes j{0%{transform:translateX(0)}.4%{transform:translateX(-200px)}.8%{transform:translateX(-300px)}1.2%{transform:translateX(-400px)}1.5%{transform:translateX(-500px)}1.9%{transform:translateX(-600px)}2.3%{transform:translateX(-700px)}2.6%{transform:translateX(-800px)}3.2%{transform:translateX(-900px)}3.6%{transform:translateX(-1000px)}4%{transform:translateX(-1100px)}4.3%{transform:translateX(-1200px)}4.7%{transform:translateX(-1300px)}5%{transform:translateX(-1400px)}27.9%{transform:translateX(-1500px)}51.8%{transform:translateX(-1600px)}52.2%{transform:translateX(-1700px)}52.7%{transform:translateX(-1800px)}53%{transform:translateX(-1900px)}53.4%{transform:translateX(-2000px)}53.8%{transform:translateX(-2100px)}54.1%{transform:translateX(-2200px)}54.5%{transform:translateX(-2300px)}54.9%{transform:translateX(-2400px)}55.3%{transform:translateX(-2500px)}55.7%{transform:translateX(-2600px)}56.1%{transform:translateX(-2700px)}56.4%{transform:translateX(-2800px)}56.8%{transform:translateX(-2900px)}57.2%{transform:translateX(-3000px)}57.5%{transform:translateX(-3100px)}57.9%{transform:translateX(-3200px)}58.3%{transform:translateX(-3300px)}58.6%{transform:translateX(-3400px)}59%{transform:translateX(-3500px)}59.4%{transform:translateX(-3600px)}59.8%{transform:translateX(-3700px)}60.2%{transform:translateX(-3800px)}60.6%{transform:translateX(-3900px)}61%{transform:translateX(-4000px)}61.3%{transform:translateX(-4100px)}61.7%{transform:translateX(-4200px)}62%{transform:translateX(-4300px)}62.3%{transform:translateX(-4400px)}62.7%{transform:translateX(-4500px)}79.5%{transform:translateX(-4600px)}79.9%{transform:translateX(-4700px)}80.3%{transform:translateX(-4800px)}80.6%{transform:translateX(-4900px)}81%{transform:translateX(-5000px)}81.4%{transform:translateX(-5100px)}81.8%{transform:translateX(-5200px)}82.1%{transform:translateX(-5300px)}82.5%{transform:translateX(-5400px)}82.9%{transform:translateX(-5500px)}83.3%{transform:translateX(-5600px)}83.6%{transform:translateX(-5700px)}84%{transform:translateX(-5800px)}to{transform:translateX(-5900px)}}.a{fill:#282d35}.f,.g{fill:#66c2cd;white-space:pre}.g{fill:#b9c0cb}</style><g font-family="Monaco,Consolas,Menlo,'Bitstream Vera Sans Mono','Powerline Symbols',monospace" font-size="1.67"><defs><symbol id="1"><text y="1.67" class="f">$</text><text x="2.004" y="1.67" class="g">p</text></symbol><symbol id="2"><text y="1.67" class="f">$</text><text x="2.004" y="1.67" class="g">pr</text></symbol><symbol id="3"><text y="1.67" class="f">$</text><text x="2.004" y="1.67" class="g">pro</text></symbol><symbol id="4"><text y="1.67" class="f">$</text><text x="2.004" y="1.67" class="g">prom</text></symbol><symbol id="5"><text y="1.67" class="f">$</text><text x="2.004" y="1.67" class="g">promp</text></symbol><symbol id="6"><text y="1.67" class="f">$</text><text x="2.004" y="1.67" class="g">prompt</text></symbol><symbol id="7"><text y="1.67" class="f">$</text><text x="2.004" y="1.67" class="g">promptc</text></symbol><symbol id="8"><text y="1.67" class="f">$</text><text x="2.004" y="1.67" class="g">promptci</text></symbol><symbol id="9"><text y="1.67" class="f">$</text><text x="2.004" y="1.67" class="g">promptci</text><text x="11.022" y="1.67" class="g">r</text></symbol><symbol id="10"><text y="1.67" class="f">$</text><text x="2.004" y="1.67" class="g">promptci</text><text x="11.022" y="1.67" class="g">ru</text></symbol><symbol id="11"><text y="1.67" class="f">$</text><text x="2.004" y="1.67" class="g">promptci</text><text x="11.022" y="1.67" class="g">run</text></symbol><symbol id="12"><text y="1.67" class="g">Prompt:</text><text x="8.016" y="1.67" class="g">greeting</text><text x="18.036" y="1.67" class="g">(threshold:</text><text x="30.06" y="1.67" class="g">0.7)</text></symbol><symbol id="13"><text y="1.67" class="g">------------------------------------------------------------</text></symbol><symbol id="14"><text y="1.67" class="g">[1]</text><text x="4.008" y="1.67" class="g">PASS</text><text x="10.02" y="1.67" class="g">score=1.00</text><text x="22.044" y="1.67" class="g">Output</text><text x="29.058" y="1.67" class="g">contains</text><text x="38.076" y="1.67" class="g">expected</text><text x="47.094" y="1.67" class="g">substring</text><text x="57.114" y="1.67" class="g">&quot;Alex&quot;</text></symbol><symbol id="15"><text x="4.008" y="1.67" class="g">baseline:</text><text x="14.028" y="1.67" class="g">Hello,</text><text x="21.042" y="1.67" class="g">Alex!</text><text x="27.054" y="1.67" class="g">I</text><text x="29.058" y="1.67" class="g">hope</text><text x="34.068" y="1.67" class="g">you&apos;re</text><text x="41.082" y="1.67" class="g">having</text><text x="48.096" y="1.67" class="g">a</text><text x="50.1" y="1.67" class="g">fantastic</text><text x="60.12" y="1.67" class="g">day!</text></symbol><symbol id="16"><text x="4.008" y="1.67" class="g">current</text><text x="12.024" y="1.67" class="g">:</text><text x="14.028" y="1.67" class="g">Hey</text><text x="18.036" y="1.67" class="g">Alex!</text><text x="24.048" y="1.67" class="g">I</text><text x="26.052" y="1.67" class="g">hope</text><text x="31.062" y="1.67" class="g">you&apos;re</text><text x="38.076" y="1.67" class="g">having</text><text x="45.09" y="1.67" class="g">a</text><text x="47.094" y="1.67" class="g">fantastic</text><text x="57.114" y="1.67" class="g">day!</text></symbol><symbol id="17"><text y="1.67" class="g">RESULT:</text><text x="8.016" y="1.67" class="g">PASSED</text></symbol><symbol id="18"><text y="1.67" class="f">$</text><text x="2.004" y="1.67" class="g">#</text></symbol><symbol id="19"><text y="1.67" class="f">$</text><text x="2.004" y="1.67" class="g">#</text><text x="4.008" y="1.67" class="g">someone</text></symbol><symbol id="20"><text y="1.67" class="f">$</text><text x="2.004" y="1.67" class="g">#</text><text x="4.008" y="1.67" class="g">someone</text><text x="12.024" y="1.67" class="g">edits</text></symbol><symbol id="21"><text y="1.67" class="f">$</text><text x="2.004" y="1.67" class="g">#</text><text x="4.008" y="1.67" class="g">someone</text><text x="12.024" y="1.67" class="g">edits</text><text x="18.036" y="1.67" class="g">the</text></symbol><symbol id="22"><text y="1.67" class="f">$</text><text x="2.004" y="1.67" class="g">#</text><text x="4.008" y="1.67" class="g">someone</text><text x="12.024" y="1.67" class="g">edits</text><text x="18.036" y="1.67" class="g">the</text><text x="22.044" y="1.67" class="g">prompt...</text></symbol><symbol id="a"><path fill="transparent" d="M0 0h100v21H0z"/></symbol><symbol id="b"><path fill="#6f7683" d="M0 0h1.102v2.171H0z"/></symbol></defs><path class="a" d="M0 0h100v43.42H0z"/><g style="animation-duration:8.428897s;animation-iteration-count:infinite;animation-name:j;animation-timing-function:steps(1,end)"><svg width="6000"><svg><use xlink:href="#a"/><use xlink:href="#b" x="-.004"/></svg><svg x="100"><use xlink:href="#a"/><use xlink:href="#b" x="-.004"/></svg><svg x="200"><use xlink:href="#a"/><use xlink:href="#b" x="2.996"/><use xlink:href="#1"/></svg><svg x="300"><use xlink:href="#a"/><use xlink:href="#b" x="3.996"/><use xlink:href="#2"/></svg><svg x="400"><use xlink:href="#a"/><use xlink:href="#b" x="4.996"/><use xlink:href="#3"/></svg><svg x="500"><use xlink:href="#a"/><use xlink:href="#b" x="5.996"/><use xlink:href="#4"/></svg><svg x="600"><use xlink:href="#a"/><use xlink:href="#b" x="6.996"/><use xlink:href="#5"/></svg><svg x="700"><use xlink:href="#a"/><use xlink:href="#b" x="7.996"/><use xlink:href="#6"/></svg><svg x="800"><use xlink:href="#a"/><use xlink:href="#b" x="8.996"/><use xlink:href="#7"/></svg><svg x="900"><use xlink:href="#a"/><use xlink:href="#b" x="9.996"/><use xlink:href="#8"/></svg><svg x="1000"><use xlink:href="#a"/><use xlink:href="#b" x="10.996"/><use xlink:href="#8"/></svg><svg x="1100"><use xlink:href="#a"/><use xlink:href="#b" x="11.996"/><use xlink:href="#9"/></svg><svg x="1200"><use xlink:href="#a"/><use xlink:href="#b" x="12.996"/><use xlink:href="#10"/></svg><svg x="1300"><use xlink:href="#a"/><use xlink:href="#b" x="13.996"/><use xlink:href="#11"/></svg><svg x="1400"><use xlink:href="#a"/><use xlink:href="#b" x="-.004" y="2.146"/><use xlink:href="#11"/></svg><svg x="1500"><use xlink:href="#a"/><use xlink:href="#b" x="-.004" y="19.514"/><use xlink:href="#11"/><use xlink:href="#12" y="4.342"/><use xlink:href="#13" y="6.513"/><use xlink:href="#14" y="8.684"/><use xlink:href="#15" y="10.855"/><use xlink:href="#16" y="13.026"/><use xlink:href="#13" y="15.197"/><use xlink:href="#17" y="17.368"/></svg><svg x="1600"><use xlink:href="#a"/><use xlink:href="#b" x="2.996" y="21.685"/><use xlink:href="#11"/><use xlink:href="#12" y="4.342"/><use xlink:href="#13" y="6.513"/><use xlink:href="#14" y="8.684"/><use xlink:href="#15" y="10.855"/><use xlink:href="#16" y="13.026"/><use xlink:href="#13" y="15.197"/><use xlink:href="#17" y="17.368"/><use xlink:href="#18" y="21.71"/></svg><svg x="1700"><use xlink:href="#a"/><use xlink:href="#b" x="3.996" y="21.685"/><use xlink:href="#11"/><use xlink:href="#12" y="4.342"/><use xlink:href="#13" y="6.513"/><use xlink:href="#14" y="8.684"/><use xlink:href="#15" y="10.855"/><use xlink:href="#16" y="13.026"/><use xlink:href="#13" y="15.197"/><use xlink:href="#17" y="17.368"/><use xlink:href="#18" y="21.71"/></svg><svg x="1800"><use xlink:href="#a"/><use xlink:href="#b" x="4.996" y="21.685"/><use xlink:href="#11"/><use xlink:href="#12" y="4.342"/><use xlink:href="#13" y="6.513"/><use xlink:href="#14" y="8.684"/><use xlink:href="#15" y="10.855"/><use xlink:href="#16" y="13.026"/><use xlink:href="#13" y="15.197"/><use xlink:href="#17" y="17.368"/><text y="23.38" class="f">$</text><text x="2.004" y="23.38" class="g">#</text><text x="4.008" y="23.38" class="g">s</text></svg><svg x="1900"><use xlink:href="#a"/><use xlink:href="#b" x="5.996" y="21.685"/><use xlink:href="#11"/><use xlink:href="#12" y="4.342"/><use xlink:href="#13" y="6.513"/><use xlink:href="#14" y="8.684"/><use xlink:href="#15" y="10.855"/><use xlink:href="#16" y="13.026"/><use xlink:href="#13" y="15.197"/><use xlink:href="#17" y="17.368"/><text y="23.38" class="f">$</text><text x="2.004" y="23.38" class="g">#</text><text x="4.008" y="23.38" class="g">so</text></svg><svg x="2000"><use xlink:href="#a"/><use xlink:href="#b" x="6.996" y="21.685"/><use xlink:href="#11"/><use xlink:href="#12" y="4.342"/><use xlink:href="#13" y="6.513"/><use xlink:href="#14" y="8.684"/><use xlink:href="#15" y="10.855"/><use xlink:href="#16" y="13.026"/><use xlink:href="#13" y="15.197"/><use xlink:href="#17" y="17.368"/><text y="23.38" class="f">$</text><text x="2.004" y="23.38" class="g">#</text><text x="4.008" y="23.38" class="g">som</text></svg><svg x="2100"><use xlink:href="#a"/><use xlink:href="#b" x="7.996" y="21.685"/><use xlink:href="#11"/><use xlink:href="#12" y="4.342"/><use xlink:href="#13" y="6.513"/><use xlink:href="#14" y="8.684"/><use xlink:href="#15" y="10.855"/><use xlink:href="#16" y="13.026"/><use xlink:href="#13" y="15.197"/><use xlink:href="#17" y="17.368"/><text y="23.38" class="f">$</text><text x="2.004" y="23.38" class="g">#</text><text x="4.008" y="23.38" class="g">some</text></svg><svg x="2200"><use xlink:href="#a"/><use xlink:href="#b" x="8.996" y="21.685"/><use xlink:href="#11"/><use xlink:href="#12" y="4.342"/><use xlink:href="#13" y="6.513"/><use xlink:href="#14" y="8.684"/><use xlink:href="#15" y="10.855"/><use xlink:href="#16" y="13.026"/><use xlink:href="#13" y="15.197"/><use xlink:href="#17" y="17.368"/><text y="23.38" class="f">$</text><text x="2.004" y="23.38" class="g">#</text><text x="4.008" y="23.38" class="g">someo</text></svg><svg x="2300"><use xlink:href="#a"/><use xlink:href="#b" x="9.996" y="21.685"/><use xlink:href="#11"/><use xlink:href="#12" y="4.342"/><use xlink:href="#13" y="6.513"/><use xlink:href="#14" y="8.684"/><use xlink:href="#15" y="10.855"/><use xlink:href="#16" y="13.026"/><use xlink:href="#13" y="15.197"/><use xlink:href="#17" y="17.368"/><text y="23.38" class="f">$</text><text x="2.004" y="23.38" class="g">#</text><text x="4.008" y="23.38" class="g">someon</text></svg><svg x="2400"><use xlink:href="#a"/><use xlink:href="#b" x="10.996" y="21.685"/><use xlink:href="#11"/><use xlink:href="#12" y="4.342"/><use xlink:href="#13" y="6.513"/><use xlink:href="#14" y="8.684"/><use xlink:href="#15" y="10.855"/><use xlink:href="#16" y="13.026"/><use xlink:href="#13" y="15.197"/><use xlink:href="#17" y="17.368"/><use xlink:href="#19" y="21.71"/></svg><svg x="2500"><use xlink:href="#a"/><use xlink:href="#b" x="11.996" y="21.685"/><use xlink:href="#11"/><use xlink:href="#12" y="4.342"/><use xlink:href="#13" y="6.513"/><use xlink:href="#14" y="8.684"/><use xlink:href="#15" y="10.855"/><use xlink:href="#16" y="13.026"/><use xlink:href="#13" y="15.197"/><use xlink:href="#17" y="17.368"/><use xlink:href="#19" y="21.71"/></svg><svg x="2600"><use xlink:href="#a"/><use xlink:href="#b" x="12.996" y="21.685"/><use xlink:href="#11"/><use xlink:href="#12" y="4.342"/><use xlink:href="#13" y="6.513"/><use xlink:href="#14" y="8.684"/><use xlink:href="#15" y="10.855"/><use xlink:href="#16" y="13.026"/><use xlink:href="#13" y="15.197"/><use xlink:href="#17" y="17.368"/><text y="23.38" class="f">$</text><text x="2.004" y="23.38" class="g">#</text><text x="4.008" y="23.38" class="g">someone</text><text x="12.024" y="23.38" class="g">e</text></svg><svg x="2700"><use xlink:href="#a"/><use xlink:href="#b" x="13.996" y="21.685"/><use xlink:href="#11"/><use xlink:href="#12" y="4.342"/><use xlink:href="#13" y="6.513"/><use xlink:href="#14" y="8.684"/><use xlink:href="#15" y="10.855"/><use xlink:href="#16" y="13.026"/><use xlink:href="#13" y="15.197"/><use xlink:href="#17" y="17.368"/><text y="23.38" class="f">$</text><text x="2.004" y="23.38" class="g">#</text><text x="4.008" y="23.38" class="g">someone</text><text x="12.024" y="23.38" class="g">ed</text></svg><svg x="2800"><use xlink:href="#a"/><use xlink:href="#b" x="14.996" y="21.685"/><use xlink:href="#11"/><use xlink:href="#12" y="4.342"/><use xlink:href="#13" y="6.513"/><use xlink:href="#14" y="8.684"/><use xlink:href="#15" y="10.855"/><use xlink:href="#16" y="13.026"/><use xlink:href="#13" y="15.197"/><use xlink:href="#17" y="17.368"/><text y="23.38" class="f">$</text><text x="2.004" y="23.38" class="g">#</text><text x="4.008" y="23.38" class="g">someone</text><text x="12.024" y="23.38" class="g">edi</text></svg><svg x="2900"><use xlink:href="#a"/><use xlink:href="#b" x="15.996" y="21.685"/><use xlink:href="#11"/><use xlink:href="#12" y="4.342"/><use xlink:href="#13" y="6.513"/><use xlink:href="#14" y="8.684"/><use xlink:href="#15" y="10.855"/><use xlink:href="#16" y="13.026"/><use xlink:href="#13" y="15.197"/><use xlink:href="#17" y="17.368"/><text y="23.38" class="f">$</text><text x="2.004" y="23.38" class="g">#</text><text x="4.008" y="23.38" class="g">someone</text><text x="12.024" y="23.38" class="g">edit</text></svg><svg x="3000"><use xlink:href="#a"/><use xlink:href="#b" x="16.996" y="21.685"/><use xlink:href="#11"/><use xlink:href="#12" y="4.342"/><use xlink:href="#13" y="6.513"/><use xlink:href="#14" y="8.684"/><use xlink:href="#15" y="10.855"/><use xlink:href="#16" y="13.026"/><use xlink:href="#13" y="15.197"/><use xlink:href="#17" y="17.368"/><use xlink:href="#20" y="21.71"/></svg><svg x="3100"><use xlink:href="#a"/><use xlink:href="#b" x="17.996" y="21.685"/><use xlink:href="#11"/><use xlink:href="#12" y="4.342"/><use xlink:href="#13" y="6.513"/><use xlink:href="#14" y="8.684"/><use xlink:href="#15" y="10.855"/><use xlink:href="#16" y="13.026"/><use xlink:href="#13" y="15.197"/><use xlink:href="#17" y="17.368"/><use xlink:href="#20" y="21.71"/></svg><svg x="3200"><use xlink:href="#a"/><use xlink:href="#b" x="18.996" y="21.685"/><use xlink:href="#11"/><use xlink:href="#12" y="4.342"/><use xlink:href="#13" y="6.513"/><use xlink:href="#14" y="8.684"/><use xlink:href="#15" y="10.855"/><use xlink:href="#16" y="13.026"/><use xlink:href="#13" y="15.197"/><use xlink:href="#17" y="17.368"/><text y="23.38" class="f">$</text><text x="2.004" y="23.38" class="g">#</text><text x="4.008" y="23.38" class="g">someone</text><text x="12.024" y="23.38" class="g">edits</text><text x="18.036" y="23.38" class="g">t</text></svg><svg x="3300"><use xlink:href="#a"/><use xlink:href="#b" x="19.996" y="21.685"/><use xlink:href="#11"/><use xlink:href="#12" y="4.342"/><use xlink:href="#13" y="6.513"/><use xlink:href="#14" y="8.684"/><use xlink:href="#15" y="10.855"/><use xlink:href="#16" y="13.026"/><use xlink:href="#13" y="15.197"/><use xlink:href="#17" y="17.368"/><text y="23.38" class="f">$</text><text x="2.004" y="23.38" class="g">#</text><text x="4.008" y="23.38" class="g">someone</text><text x="12.024" y="23.38" class="g">edits</text><text x="18.036" y="23.38" class="g">th</text></svg><svg x="3400"><use xlink:href="#a"/><use xlink:href="#b" x="20.996" y="21.685"/><use xlink:href="#11"/><use xlink:href="#12" y="4.342"/><use xlink:href="#13" y="6.513"/><use xlink:href="#14" y="8.684"/><use xlink:href="#15" y="10.855"/><use xlink:href="#16" y="13.026"/><use xlink:href="#13" y="15.197"/><use xlink:href="#17" y="17.368"/><use xlink:href="#21" y="21.71"/></svg><svg x="3500"><use xlink:href="#a"/><use xlink:href="#b" x="21.996" y="21.685"/><use xlink:href="#11"/><use xlink:href="#12" y="4.342"/><use xlink:href="#13" y="6.513"/><use xlink:href="#14" y="8.684"/><use xlink:href="#15" y="10.855"/><use xlink:href="#16" y="13.026"/><use xlink:href="#13" y="15.197"/><use xlink:href="#17" y="17.368"/><use xlink:href="#21" y="21.71"/></svg><svg x="3600"><use xlink:href="#a"/><use xlink:href="#b" x="22.996" y="21.685"/><use xlink:href="#11"/><use xlink:href="#12" y="4.342"/><use xlink:href="#13" y="6.513"/><use xlink:href="#14" y="8.684"/><use xlink:href="#15" y="10.855"/><use xlink:href="#16" y="13.026"/><use xlink:href="#13" y="15.197"/><use xlink:href="#17" y="17.368"/><text y="23.38" class="f">$</text><text x="2.004" y="23.38" class="g">#</text><text x="4.008" y="23.38" class="g">someone</text><text x="12.024" y="23.38" class="g">edits</text><text x="18.036" y="23.38" class="g">the</text><text x="22.044" y="23.38" class="g">p</text></svg><svg x="3700"><use xlink:href="#a"/><use xlink:href="#b" x="23.996" y="21.685"/><use xlink:href="#11"/><use xlink:href="#12" y="4.342"/><use xlink:href="#13" y="6.513"/><use xlink:href="#14" y="8.684"/><use xlink:href="#15" y="10.855"/><use xlink:href="#16" y="13.026"/><use xlink:href="#13" y="15.197"/><use xlink:href="#17" y="17.368"/><text y="23.38" class="f">$</text><text x="2.004" y="23.38" class="g">#</text><text x="4.008" y="23.38" class="g">someone</text><text x="12.024" y="23.38" class="g">edits</text><text x="18.036" y="23.38" class="g">the</text><text x="22.044" y="23.38" class="g">pr</text></svg><svg x="3800"><use xlink:href="#a"/><use xlink:href="#b" x="24.996" y="21.685"/><use xlink:href="#11"/><use xlink:href="#12" y="4.342"/><use xlink:href="#13" y="6.513"/><use xlink:href="#14" y="8.684"/><use xlink:href="#15" y="10.855"/><use xlink:href="#16" y="13.026"/><use xlink:href="#13" y="15.197"/><use xlink:href="#17" y="17.368"/><text y="23.38" class="f">$</text><text x="2.004" y="23.38" class="g">#</text><text x="4.008" y="23.38" class="g">someone</text><text x="12.024" y="23.38" class="g">edits</text><text x="18.036" y="23.38" class="g">the</text><text x="22.044" y="23.38" class="g">pro</text></svg><svg x="3900"><use xlink:href="#a"/><use xlink:href="#b" x="25.996" y="21.685"/><use xlink:href="#11"/><use xlink:href="#12" y="4.342"/><use xlink:href="#13" y="6.513"/><use xlink:href="#14" y="8.684"/><use xlink:href="#15" y="10.855"/><use xlink:href="#16" y="13.026"/><use xlink:href="#13" y="15.197"/><use xlink:href="#17" y="17.368"/><text y="23.38" class="f">$</text><text x="2.004" y="23.38" class="g">#</text><text x="4.008" y="23.38" class="g">someone</text><text x="12.024" y="23.38" class="g">edits</text><text x="18.036" y="23.38" class="g">the</text><text x="22.044" y="23.38" class="g">prom</text></svg><svg x="4000"><use xlink:href="#a"/><use xlink:href="#b" x="26.996" y="21.685"/><use xlink:href="#11"/><use xlink:href="#12" y="4.342"/><use xlink:href="#13" y="6.513"/><use xlink:href="#14" y="8.684"/><use xlink:href="#15" y="10.855"/><use xlink:href="#16" y="13.026"/><use xlink:href="#13" y="15.197"/><use xlink:href="#17" y="17.368"/><text y="23.38" class="f">$</text><text x="2.004" y="23.38" class="g">#</text><text x="4.008" y="23.38" class="g">someone</text><text x="12.024" y="23.38" class="g">edits</text><text x="18.036" y="23.38" class="g">the</text><text x="22.044" y="23.38" class="g">promp</text></svg><svg x="4100"><use xlink:href="#a"/><use xlink:href="#b" x="27.996" y="21.685"/><use xlink:href="#11"/><use xlink:href="#12" y="4.342"/><use xlink:href="#13" y="6.513"/><use xlink:href="#14" y="8.684"/><use xlink:href="#15" y="10.855"/><use xlink:href="#16" y="13.026"/><use xlink:href="#13" y="15.197"/><use xlink:href="#17" y="17.368"/><text y="23.38" class="f">$</text><text x="2.004" y="23.38" class="g">#</text><text x="4.008" y="23.38" class="g">someone</text><text x="12.024" y="23.38" class="g">edits</text><text x="18.036" y="23.38" class="g">the</text><text x="22.044" y="23.38" class="g">prompt</text></svg><svg x="4200"><use xlink:href="#a"/><use xlink:href="#b" x="28.996" y="21.685"/><use xlink:href="#11"/><use xlink:href="#12" y="4.342"/><use xlink:href="#13" y="6.513"/><use xlink:href="#14" y="8.684"/><use xlink:href="#15" y="10.855"/><use xlink:href="#16" y="13.026"/><use xlink:href="#13" y="15.197"/><use xlink:href="#17" y="17.368"/><text y="23.38" class="f">$</text><text x="2.004" y="23.38" class="g">#</text><text x="4.008" y="23.38" class="g">someone</text><text x="12.024" y="23.38" class="g">edits</text><text x="18.036" y="23.38" class="g">the</text><text x="22.044" y="23.38" class="g">prompt.</text></svg><svg x="4300"><use xlink:href="#a"/><use xlink:href="#b" x="29.996" y="21.685"/><use xlink:href="#11"/><use xlink:href="#12" y="4.342"/><use xlink:href="#13" y="6.513"/><use xlink:href="#14" y="8.684"/><use xlink:href="#15" y="10.855"/><use xlink:href="#16" y="13.026"/><use xlink:href="#13" y="15.197"/><use xlink:href="#17" y="17.368"/><text y="23.38" class="f">$</text><text x="2.004" y="23.38" class="g">#</text><text x="4.008" y="23.38" class="g">someone</text><text x="12.024" y="23.38" class="g">edits</text><text x="18.036" y="23.38" class="g">the</text><text x="22.044" y="23.38" class="g">prompt..</text></svg><svg x="4400"><use xlink:href="#a"/><use xlink:href="#b" x="30.996" y="21.685"/><use xlink:href="#11"/><use xlink:href="#12" y="4.342"/><use xlink:href="#13" y="6.513"/><use xlink:href="#14" y="8.684"/><use xlink:href="#15" y="10.855"/><use xlink:href="#16" y="13.026"/><use xlink:href="#13" y="15.197"/><use xlink:href="#17" y="17.368"/><use xlink:href="#22" y="21.71"/></svg><svg x="4500"><use xlink:href="#a"/><use xlink:href="#b" x="-.004" y="23.856"/><use xlink:href="#11"/><use xlink:href="#12" y="4.342"/><use xlink:href="#13" y="6.513"/><use xlink:href="#14" y="8.684"/><use xlink:href="#15" y="10.855"/><use xlink:href="#16" y="13.026"/><use xlink:href="#13" y="15.197"/><use xlink:href="#17" y="17.368"/><use xlink:href="#22" y="21.71"/></svg><svg x="4600"><use xlink:href="#a"/><use xlink:href="#b" x="2.996" y="23.856"/><use xlink:href="#11"/><use xlink:href="#12" y="4.342"/><use xlink:href="#13" y="6.513"/><use xlink:href="#14" y="8.684"/><use xlink:href="#15" y="10.855"/><use xlink:href="#16" y="13.026"/><use xlink:href="#13" y="15.197"/><use xlink:href="#17" y="17.368"/><use xlink:href="#22" y="21.71"/><use xlink:href="#1" y="23.881"/></svg><svg x="4700"><use xlink:href="#a"/><use xlink:href="#b" x="3.996" y="23.856"/><use xlink:href="#11"/><use xlink:href="#12" y="4.342"/><use xlink:href="#13" y="6.513"/><use xlink:href="#14" y="8.684"/><use xlink:href="#15" y="10.855"/><use xlink:href="#16" y="13.026"/><use xlink:href="#13" y="15.197"/><use xlink:href="#17" y="17.368"/><use xlink:href="#22" y="21.71"/><use xlink:href="#2" y="23.881"/></svg><svg x="4800"><use xlink:href="#a"/><use xlink:href="#b" x="4.996" y="23.856"/><use xlink:href="#11"/><use xlink:href="#12" y="4.342"/><use xlink:href="#13" y="6.513"/><use xlink:href="#14" y="8.684"/><use xlink:href="#15" y="10.855"/><use xlink:href="#16" y="13.026"/><use xlink:href="#13" y="15.197"/><use xlink:href="#17" y="17.368"/><use xlink:href="#22" y="21.71"/><use xlink:href="#3" y="23.881"/></svg><svg x="4900"><use xlink:href="#a"/><use xlink:href="#b" x="5.996" y="23.856"/><use xlink:href="#11"/><use xlink:href="#12" y="4.342"/><use xlink:href="#13" y="6.513"/><use xlink:href="#14" y="8.684"/><use xlink:href="#15" y="10.855"/><use xlink:href="#16" y="13.026"/><use xlink:href="#13" y="15.197"/><use xlink:href="#17" y="17.368"/><use xlink:href="#22" y="21.71"/><use xlink:href="#4" y="23.881"/></svg><svg x="5000"><use xlink:href="#a"/><use xlink:href="#b" x="6.996" y="23.856"/><use xlink:href="#11"/><use xlink:href="#12" y="4.342"/><use xlink:href="#13" y="6.513"/><use xlink:href="#14" y="8.684"/><use xlink:href="#15" y="10.855"/><use xlink:href="#16" y="13.026"/><use xlink:href="#13" y="15.197"/><use xlink:href="#17" y="17.368"/><use xlink:href="#22" y="21.71"/><use xlink:href="#5" y="23.881"/></svg><svg x="5100"><use xlink:href="#a"/><use xlink:href="#b" x="7.996" y="23.856"/><use xlink:href="#11"/><use xlink:href="#12" y="4.342"/><use xlink:href="#13" y="6.513"/><use xlink:href="#14" y="8.684"/><use xlink:href="#15" y="10.855"/><use xlink:href="#16" y="13.026"/><use xlink:href="#13" y="15.197"/><use xlink:href="#17" y="17.368"/><use xlink:href="#22" y="21.71"/><use xlink:href="#6" y="23.881"/></svg><svg x="5200"><use xlink:href="#a"/><use xlink:href="#b" x="8.996" y="23.856"/><use xlink:href="#11"/><use xlink:href="#12" y="4.342"/><use xlink:href="#13" y="6.513"/><use xlink:href="#14" y="8.684"/><use xlink:href="#15" y="10.855"/><use xlink:href="#16" y="13.026"/><use xlink:href="#13" y="15.197"/><use xlink:href="#17" y="17.368"/><use xlink:href="#22" y="21.71"/><use xlink:href="#7" y="23.881"/></svg><svg x="5300"><use xlink:href="#a"/><use xlink:href="#b" x="9.996" y="23.856"/><use xlink:href="#11"/><use xlink:href="#12" y="4.342"/><use xlink:href="#13" y="6.513"/><use xlink:href="#14" y="8.684"/><use xlink:href="#15" y="10.855"/><use xlink:href="#16" y="13.026"/><use xlink:href="#13" y="15.197"/><use xlink:href="#17" y="17.368"/><use xlink:href="#22" y="21.71"/><use xlink:href="#8" y="23.881"/></svg><svg x="5400"><use xlink:href="#a"/><use xlink:href="#b" x="10.996" y="23.856"/><use xlink:href="#11"/><use xlink:href="#12" y="4.342"/><use xlink:href="#13" y="6.513"/><use xlink:href="#14" y="8.684"/><use xlink:href="#15" y="10.855"/><use xlink:href="#16" y="13.026"/><use xlink:href="#13" y="15.197"/><use xlink:href="#17" y="17.368"/><use xlink:href="#22" y="21.71"/><use xlink:href="#8" y="23.881"/></svg><svg x="5500"><use xlink:href="#a"/><use xlink:href="#b" x="11.996" y="23.856"/><use xlink:href="#11"/><use xlink:href="#12" y="4.342"/><use xlink:href="#13" y="6.513"/><use xlink:href="#14" y="8.684"/><use xlink:href="#15" y="10.855"/><use xlink:href="#16" y="13.026"/><use xlink:href="#13" y="15.197"/><use xlink:href="#17" y="17.368"/><use xlink:href="#22" y="21.71"/><use xlink:href="#9" y="23.881"/></svg><svg x="5600"><use xlink:href="#a"/><use xlink:href="#b" x="12.996" y="23.856"/><use xlink:href="#11"/><use xlink:href="#12" y="4.342"/><use xlink:href="#13" y="6.513"/><use xlink:href="#14" y="8.684"/><use xlink:href="#15" y="10.855"/><use xlink:href="#16" y="13.026"/><use xlink:href="#13" y="15.197"/><use xlink:href="#17" y="17.368"/><use xlink:href="#22" y="21.71"/><use xlink:href="#10" y="23.881"/></svg><svg x="5700"><use xlink:href="#a"/><use xlink:href="#b" x="13.996" y="23.856"/><use xlink:href="#11"/><use xlink:href="#12" y="4.342"/><use xlink:href="#13" y="6.513"/><use xlink:href="#14" y="8.684"/><use xlink:href="#15" y="10.855"/><use xlink:href="#16" y="13.026"/><use xlink:href="#13" y="15.197"/><use xlink:href="#17" y="17.368"/><use xlink:href="#22" y="21.71"/><use xlink:href="#11" y="23.881"/></svg><svg x="5800"><use xlink:href="#a"/><use xlink:href="#b" x="-.004" y="26.027"/><use xlink:href="#11"/><use xlink:href="#12" y="4.342"/><use xlink:href="#13" y="6.513"/><use xlink:href="#14" y="8.684"/><use xlink:href="#15" y="10.855"/><use xlink:href="#16" y="13.026"/><use xlink:href="#13" y="15.197"/><use xlink:href="#17" y="17.368"/><use xlink:href="#22" y="21.71"/><use xlink:href="#11" y="23.881"/></svg><svg x="5900"><use xlink:href="#a"/><use xlink:href="#b" x="-.004" y="43.395"/><use xlink:href="#11"/><use xlink:href="#12" y="4.342"/><use xlink:href="#13" y="6.513"/><use xlink:href="#14" y="8.684"/><use xlink:href="#15" y="10.855"/><use xlink:href="#16" y="13.026"/><use xlink:href="#13" y="15.197"/><use xlink:href="#17" y="17.368"/><use xlink:href="#22" y="21.71"/><use xlink:href="#11" y="23.881"/><use xlink:href="#12" y="28.223"/><use xlink:href="#13" y="30.394"/><text y="34.235" class="g">[1]</text><text x="4.008" y="34.235" class="g">FAIL</text><text x="10.02" y="34.235" class="g">score=0.00</text><text x="22.044" y="34.235" class="g">Output</text><text x="29.058" y="34.235" class="g">does</text><text x="34.068" y="34.235" class="g">not</text><text x="38.076" y="34.235" class="g">contain</text><text x="46.092" y="34.235" class="g">expected</text><text x="55.11" y="34.235" class="g">substring</text><text x="65.13" y="34.235" class="g">&quot;Alex&quot;</text><text x="4.008" y="36.406" class="g">baseline:</text><text x="14.028" y="36.406" class="g">Hello,</text><text x="21.042" y="36.406" class="g">Alex!</text><text x="27.054" y="36.406" class="g">I</text><text x="29.058" y="36.406" class="g">hope</text><text x="34.068" y="36.406" class="g">you&apos;re</text><text x="41.082" y="36.406" class="g">having</text><text x="48.096" y="36.406" class="g">a</text><text x="50.1" y="36.406" class="g">wonderful</text><text x="60.12" y="36.406" class="g">day!</text><text x="4.008" y="38.577" class="g">current</text><text x="12.024" y="38.577" class="g">:</text><text x="14.028" y="38.577" class="g">Hello</text><text x="20.04" y="38.577" class="g">there!</text><text x="27.054" y="38.577" class="g">I</text><text x="29.058" y="38.577" class="g">hope</text><text x="34.068" y="38.577" class="g">you&apos;re</text><text x="41.082" y="38.577" class="g">having</text><text x="48.096" y="38.577" class="g">a</text><text x="50.1" y="38.577" class="g">wonderful</text><text x="60.12" y="38.577" class="g">day!</text><use xlink:href="#13" y="39.078"/><text y="42.919" class="g">RESULT:</text><text x="8.016" y="42.919" class="g">FAILED</text><text x="15.03" y="42.919" class="g">(regression</text><text x="27.054" y="42.919" class="g">detected)</text></svg></svg></g></g></svg></svg>